<svg xmlns="http://www.w3.org/2000/svg" version="1.1" xmlns:xlink="http://www.w3.org/1999/xlink" xmlns:svgjs="http://svgjs.dev/svgjs" viewBox="0 0 2400 800" opacity="0.16"><defs><linearGradient x1="50%" y1="0%" x2="50%" y2="100%" id="sssurf-grad"><stop stop-color="hsl(265, 55%, 30%)" stop-opacity="1" offset="0%"></stop><stop stop-color="hsl(265, 55%, 60%)" stop-opacity="1" offset="100%"></stop></linearGradient></defs><g fill="url(#sssurf-grad)" transform="matrix(1,0,0,1,0,-662.4949340820312)"><path d="M 0 299.9539755493553 Q 900 469.27362185702225 1200 312.4461082122142 Q 2100 513.2117309512048 2400 284.9899180113829 L 2400 800 L 0 800 L 0 362.0806793569346 Z" transform="matrix(1,0,0,1,0,90)" opacity="0.05"></path><path d="M 0 299.9539755493553 Q 900 469.27362185702225 1200 312.4461082122142 Q 2100 513.2117309512048 2400 284.9899180113829 L 2400 800 L 0 800 L 0 362.0806793569346 Z" transform="matrix(1,0,0,1,0,180)" opacity="0.12"></path><path d="M 0 299.9539755493553 Q 900 469.27362185702225 1200 312.4461082122142 Q 2100 513.2117309512048 2400 284.9899180113829 L 2400 800 L 0 800 L 0 362.0806793569346 Z" transform="matrix(1,0,0,1,0,270)" opacity="0.19"></path><path d="M 0 299.9539755493553 Q 900 469.27362185702225 1200 312.4461082122142 Q 2100 513.2117309512048 2400 284.9899180113829 L 2400 800 L 0 800 L 0 362.0806793569346 Z" transform="matrix(1,0,0,1,0,360)" opacity="0.25"></path><path d="M 0 299.9539755493553 Q 900 469.27362185702225 1200 312.4461082122142 Q 2100 513.2117309512048 2400 284.9899180113829 L 2400 800 L 0 800 L 0 362.0806793569346 Z" transform="matrix(1,0,0,1,0,450)" opacity="0.32"></path><path d="M 0 299.9539755493553 Q 900 469.27362185702225 1200 312.4461082122142 Q 2100 513.2117309512048 2400 284.9899180113829 L 2400 800 L 0 800 L 0 362.0806793569346 Z" transform="matrix(1,0,0,1,0,540)" opacity="0.39"></path><path d="M 0 299.9539755493553 Q 900 469.27362185702225 1200 312.4461082122142 Q 2100 513.2117309512048 2400 284.9899180113829 L 2400 800 L 0 800 L 0 362.0806793569346 Z" transform="matrix(1,0,0,1,0,630)" opacity="0.46"></path><path d="M 0 299.9539755493553 Q 900 469.27362185702225 1200 312.4461082122142 Q 2100 513.2117309512048 2400 284.9899180113829 L 2400 800 L 0 800 L 0 362.0806793569346 Z" transform="matrix(1,0,0,1,0,720)" opacity="0.53"></path><path d="M 0 299.9539755493553 Q 900 469.27362185702225 1200 312.4461082122142 Q 2100 513.2117309512048 2400 284.9899180113829 L 2400 800 L 0 800 L 0 362.0806793569346 Z" transform="matrix(1,0,0,1,0,810)" opacity="0.59"></path><path d="M 0 299.9539755493553 Q 900 469.27362185702225 1200 312.4461082122142 Q 2100 513.2117309512048 2400 284.9899180113829 L 2400 800 L 0 800 L 0 362.0806793569346 Z" transform="matrix(1,0,0,1,0,900)" opacity="0.66"></path><path d="M 0 299.9539755493553 Q 900 469.27362185702225 1200 312.4461082122142 Q 2100 513.2117309512048 2400 284.9899180113829 L 2400 800 L 0 800 L 0 362.0806793569346 Z" transform="matrix(1,0,0,1,0,990)" opacity="0.73"></path><path d="M 0 299.9539755493553 Q 900 469.27362185702225 1200 312.4461082122142 Q 2100 513.2117309512048 2400 284.9899180113829 L 2400 800 L 0 800 L 0 362.0806793569346 Z" transform="matrix(1,0,0,1,0,1080)" opacity="0.80"></path><path d="M 0 299.9539755493553 Q 900 469.27362185702225 1200 312.4461082122142 Q 2100 513.2117309512048 2400 284.9899180113829 L 2400 800 L 0 800 L 0 362.0806793569346 Z" transform="matrix(1,0,0,1,0,1170)" opacity="0.86"></path><path d="M 0 299.9539755493553 Q 900 469.27362185702225 1200 312.4461082122142 Q 2100 513.2117309512048 2400 284.9899180113829 L 2400 800 L 0 800 L 0 362.0806793569346 Z" transform="matrix(1,0,0,1,0,1260)" opacity="0.93"></path><path d="M 0 299.9539755493553 Q 900 469.27362185702225 1200 312.4461082122142 Q 2100 513.2117309512048 2400 284.9899180113829 L 2400 800 L 0 800 L 0 362.0806793569346 Z" transform="matrix(1,0,0,1,0,1350)" opacity="1.00"></path></g></svg>